 <svg width="158" height="42" viewBox="0 0 158 42" fill="none" xmlns="http://www.w3.org/2000/svg">
                <rect width="158" height="42" />
                <g clip-path="url(#clip0_1_42)">
                <path d="M39.6887 17.0262C39.0735 16.2436 38.4348 15.8859 36.8636 15.8859C35.5196 15.8859 34.6536 16.3994 34.6536 17.3839C34.6536 18.6588 35.7939 19.0395 37.2965 19.151C39.4379 19.3068 41.3971 19.9106 41.3971 22.4834C41.3971 24.4294 40.0531 25.7697 37.1143 25.7697C34.7908 25.7697 33.582 25.0774 32.718 23.9141L34.062 22.9757C34.6771 23.7795 35.498 24.116 37.1378 24.116C38.664 24.116 39.575 23.5333 39.575 22.5277C39.575 21.3201 38.8462 20.8951 36.6363 20.7374C34.7222 20.6028 32.8316 19.8433 32.8316 17.405C32.8316 15.5494 34.1991 14.2284 36.9106 14.2284C38.7561 14.2284 40.1687 14.6976 41.0581 16.084L39.6906 17.0243L39.6887 17.0262Z" fill="white"/>
                <path d="M43.558 10.1614H45.6093V12.1747H43.558V10.1614ZM43.6717 14.4091H45.4956V25.5909H43.6717V14.4091Z" fill="white"/>
                <path d="M48.2287 10.1614H50.0527V21.7008C50.0527 22.9084 50.1212 23.9372 51.9883 23.9372V25.5909C49.1181 25.5909 48.2287 24.4736 48.2287 22.1469V10.1614Z" fill="white"/>
                <path d="M54.1277 10.1614H56.179V12.1747H54.1277V10.1614ZM54.2414 14.4091H56.0634V25.5909H54.2414V14.4091Z" fill="white"/>
                <path d="M67.0915 23.891C66.3843 25.1871 64.9952 25.7678 63.1497 25.7678C60.0287 25.7678 58.2283 23.8006 58.2283 20.7144V19.2376C58.2283 16.0628 60.0738 14.2284 63.1497 14.2284C64.8581 14.2284 66.2706 14.8322 67.0915 15.9725L65.6555 16.9551C65.1539 16.2398 64.1978 15.8379 63.1497 15.8379C61.1905 15.8379 60.0503 17.1339 60.0503 19.2376V20.7144C60.0503 22.6373 60.9613 24.1583 63.1497 24.1583C64.2213 24.1583 65.2009 23.8006 65.679 22.9046L67.0915 23.8891V23.891Z" fill="white"/>
                <path d="M77.2498 20.7163C77.2498 23.6237 75.7922 25.7697 72.5106 25.7697C69.4797 25.7697 67.7713 23.8026 67.7713 20.7163V19.2395C67.7713 16.0648 69.5248 14.2303 72.5106 14.2303C75.4963 14.2303 77.2498 16.0417 77.2498 19.2395V20.7163ZM75.4278 20.7163V19.2395C75.4278 17.1147 74.3796 15.8398 72.5106 15.8398C70.6415 15.8398 69.5934 17.1358 69.5934 19.2395V20.7163C69.5934 22.6392 70.4123 24.1602 72.5106 24.1602C74.4462 24.1602 75.4278 22.618 75.4278 20.7163Z" fill="white"/>
                <path d="M79.0699 14.4091H80.8919V15.5052C81.462 14.6553 82.2594 14.2303 83.9443 14.2303C86.3815 14.2303 88.0918 15.4841 88.0918 18.6145V25.5909H86.2698V18.6357C86.2698 16.3782 85.0159 15.8859 83.6719 15.8859C81.9635 15.8859 80.8919 17.0705 80.8919 18.6145V25.5909H79.0699V14.4091Z" fill="white"/>
                <path d="M98.9809 23.891C98.1835 25.2543 96.861 25.7908 94.8117 25.7908C91.395 25.7908 89.7532 23.6218 89.7532 20.7374V19.2164C89.7532 15.8398 91.4851 14.2072 94.4473 14.2072C97.6604 14.2072 99.1415 16.0417 99.1415 19.4395V20.7144H92.6488C92.6723 22.2565 93.1739 23.3757 94.7902 23.3757C95.997 23.3757 96.385 23.018 96.8179 22.4142L98.9828 23.891H98.9809ZM92.6469 18.6799H96.2243C96.1557 17.2262 95.5641 16.6224 94.4709 16.6224C93.3091 16.6224 92.7625 17.405 92.6469 18.6799Z" fill="white"/>
                <path d="M106.704 25.5909L104.494 22.1912L102.284 25.5909H99.071L102.807 19.8664L99.3668 14.4091H102.58L104.494 17.6069L106.408 14.4091H109.621L106.181 19.8664L109.94 25.5909H106.704Z" fill="white"/>
                <path d="M120.532 20.7374C120.532 23.6449 119.027 25.7908 116.088 25.7908C114.903 25.7908 114.106 25.5678 113.583 25.1428V29.8386H110.665V14.4091H113.583V15.1475C114.129 14.5437 114.95 14.2092 116.112 14.2092C118.755 14.2092 120.532 16.0205 120.532 19.2183V20.7394V20.7374ZM117.614 20.5586V19.3952C117.614 17.6069 117.044 16.6224 115.608 16.6224C114.172 16.6224 113.581 17.5166 113.581 19.1491V20.5586C113.581 22.1681 113.968 23.3757 115.608 23.3757C117.248 23.3757 117.614 22.1681 117.614 20.5586Z" fill="white"/>
                <path d="M130.69 23.891C129.893 25.2543 128.57 25.7908 126.521 25.7908C123.104 25.7908 121.462 23.6218 121.462 20.7374V19.2164C121.462 15.8398 123.194 14.2072 126.156 14.2072C129.369 14.2072 130.851 16.0417 130.851 19.4395V20.7144H124.358C124.381 22.2565 124.881 23.3757 126.499 23.3757C127.706 23.3757 128.094 23.018 128.527 22.4142L130.692 23.891H130.69ZM124.356 18.6799H127.933C127.865 17.2262 127.273 16.6224 126.18 16.6224C125.018 16.6224 124.472 17.405 124.358 18.6799H124.356Z" fill="white"/>
                <path d="M138.548 17.5185C138.252 17.0935 137.843 16.6686 137.112 16.6686C136.019 16.6686 135.29 17.4512 135.29 19.0164V25.5909H132.373V14.4091H135.221V15.3494C135.609 14.7899 136.362 14.2092 137.704 14.2092C139.046 14.2092 140.096 14.7899 140.78 15.9532L138.546 17.5185H138.548Z" fill="white"/>
                <path d="M141.328 14.4091H141.332V10.8845H144.226V14.4091H147.002V16.8243H144.226V21.497C144.226 22.6161 144.996 23.0853 146.067 23.0853H147.002V25.5909H145.772C143.015 25.5909 141.332 24.8313 141.332 21.9469V16.8262H141.328V14.4111V14.4091Z" fill="white"/>
                <path d="M17.2562 12.6864C17.2171 13.5113 16.5764 14.5035 15.8319 14.8919L8.28131 18.8301C7.53879 19.2185 6.96084 18.8589 7.00198 18.034L7.13324 15.2996C7.17243 14.4747 7.81307 13.4825 8.55756 13.094L16.1062 9.15591C16.8487 8.76748 17.4267 9.12707 17.3856 9.952L17.2543 12.6864H17.2562Z" fill="white"/>
                <path d="M26.8032 24.7025C26.7641 25.5274 26.1234 26.5196 25.3789 26.908L17.8283 30.8442C17.0858 31.2327 16.5078 30.8731 16.549 30.0482L16.6802 27.3138C16.7194 26.4889 17.3601 25.4966 18.1045 25.1082L25.6552 21.172C26.3977 20.7836 26.9756 21.1432 26.9345 21.9681L26.8032 24.7025Z" fill="white"/>
                <path d="M26.7308 16.3859C26.6916 17.2108 26.049 18.2011 25.3045 18.5857L8.41452 27.2869C7.67003 27.6714 7.09208 27.3099 7.13126 26.485L7.26253 23.7506C7.30171 22.9257 7.94432 21.9354 8.6888 21.5508L25.5788 12.8477C26.3232 12.4632 26.9012 12.8247 26.862 13.6496L26.7308 16.384V16.3859Z" fill="#FCC937"/>
                </g>
                <defs>
                <clipPath id="clip0_1_42">
                <rect width="140" height="22"  transform="translate(7 9)"/>
                </clipPath>
                </defs>
                </svg>